{"asset":{"version":"2.0","generator":"THREE.GLTFExporter"},"scenes":[{"nodes":[0],"name":"AuxScene"}],"scene":0,"nodes":[{"mesh":0}],"bufferViews":[{"buffer":0,"byteOffset":0,"byteLength":14400,"target":34962,"byteStride":12},{"buffer":0,"byteOffset":14400,"byteLength":14400,"target":34962,"byteStride":12}],"buffers":[{"byteLength":28800,"uri":"data:application/octet-stream;base64,"}],"accessors":[{"bufferView":0,"componentType":5126,"count":1200,"max":[12.200000762939453,5.699999809265137,37.20000457763672],"min":[-37.20000076293945,0.10000000149011612,-37.20000076293945],"type":"VEC3"},{"bufferView":1,"componentType":5126,"count":1200,"max":[0.020197896286845207,1,0.019798096269369125],"min":[-0.019996000453829765,0.8320494294166565,-0.5547014474868774],"type":"VEC3"}],"materials":[{"pbrMetallicRoughness":{"baseColorFactor":[0.5019607843137255,0.5019607843137255,0.5019607843137255,1],"metallicFactor":0,"roughnessFactor":1}}],"meshes":[{"primitives":[{"mode":4,"attributes":{"POSITION":0,"NORMAL":1},"material":0}]}]}